<?xml version="1.0" encoding="iso-8859-1"?>
<!-- Uploaded to: SVG Repo, www.svgrepo.com, Generator: SVG Repo Mixer Tools -->
<svg fill="#000000" version="1.1" id="Capa_1" xmlns="http://www.w3.org/2000/svg" xmlns:xlink="http://www.w3.org/1999/xlink" 
	 viewBox="0 0 490 490" xml:space="preserve">
<g>
	<g>
		<rect y="162.6" width="490" height="52.7"/>
		<path d="M459.1,93.9H30.9C14,93.9,0,107.9,0,124.8v17.3h490v-17.3C490,107.9,476,93.9,459.1,93.9z"/>
		<g>
			<polygon points="331.2,323.5 353,323.5 342.1,298.7 			"/>
			<path d="M0,235.5v129.7c0,16.9,14,30.9,30.9,30.9h428.2c16.9,0,30.9-14,30.9-30.9V235.5H0z M171.1,277.9l-24.5,80
				c-1.1,3.5-4.7,5.9-8.8,5.9s-7.8-2.4-8.8-5.9l-24.5-80c-1.3-4.3,1.6-8.7,6.5-9.8c4.9-1.1,9.9,1.4,11.2,5.7l15.6,51.1l15.6-51.1
				c1.3-4.3,6.3-6.8,11.2-5.7C169.5,269.2,172.4,273.6,171.1,277.9z M206.9,355.8c0,4.4-4.1,8-9.1,8s-9.1-3.6-9.1-8v-80
				c0-4.4,4.1-8,9.1-8s9.1,3.6,9.1,8V355.8z M254,363.8c-8.8,0-17.3-3.2-23.3-8.8c-3.5-3.2-3.3-8.3,0.4-11.3s9.5-2.9,12.9,0.3
				c2.6,2.4,6.2,3.8,10,3.8c7.6,0,13.7-5.4,13.7-12s-6.1-12-13.7-12c-17.6,0-32-12.6-32-28s14.4-28,32-28c8.8,0,17.3,3.2,23.3,8.8
				c3.5,3.2,3.3,8.3-0.4,11.3c-3.7,3-9.5,2.9-12.9-0.3c-2.6-2.4-6.2-3.8-10-3.8c-7.6,0-13.7,5.4-13.7,12s6.1,12,13.7,12
				c17.6,0,32,12.6,32,28C286,351.3,271.7,363.8,254,363.8z M380,362.7c-4.7,1.6-10-0.5-11.8-4.6l-8.2-18.6h-35.8l-8.2,18.6
				c-2.3,4.8-6.8,6.2-11.8,4.6c-4.7-1.5-7.1-6.2-5.3-10.3l34.6-78.9c1.4-3.1,4.8-5.1,8.5-5.1c3.8,0,7.2,2,8.5,5.1l34.6,78.9
				C387,356.5,384.7,361.2,380,362.7z"/>
		</g>
	</g>
</g>
</svg>